<svg width="149" height="149" viewBox="0 0 149 149" fill="none" xmlns="http://www.w3.org/2000/svg">
<rect width="149" height="149" rx="20" fill="#FEFAE0"/>
<path d="M34.4188 136.946V134.944L35.8934 134.632V125.052L34.4188 124.739V122.728H35.8934H40.8543C42.6447 122.728 44.0411 123.056 45.0438 123.714C46.0464 124.371 46.5477 125.351 46.5477 126.653C46.5477 127.324 46.3882 127.926 46.0691 128.46C45.7501 128.987 45.2586 129.388 44.5945 129.661C45.1609 129.785 45.6232 129.996 45.9813 130.296C46.3393 130.589 46.603 130.947 46.7723 131.37C46.9415 131.787 47.0262 132.239 47.0262 132.728C47.0262 134.121 46.5607 135.172 45.6297 135.882C44.6987 136.591 43.3478 136.946 41.577 136.946H34.4188ZM39.3211 134.339H41.577C42.254 134.339 42.7618 134.205 43.1004 133.938C43.4454 133.672 43.618 133.265 43.618 132.718C43.618 132.308 43.5529 131.969 43.4227 131.702C43.2924 131.429 43.0906 131.227 42.8172 131.097C42.5438 130.96 42.1857 130.892 41.743 130.892H39.3211V134.339ZM39.3211 128.626H40.7078C41.5151 128.626 42.1173 128.499 42.5145 128.245C42.9181 127.985 43.1199 127.584 43.1199 127.044C43.1199 126.451 42.9311 126.022 42.5535 125.755C42.1824 125.481 41.616 125.345 40.8543 125.345H39.3211V128.626ZM48.798 136.946V134.944L50.0285 134.632V128.704L48.5637 128.392V126.38H53.2609L53.3391 127.669L53.3586 127.933C53.593 127.334 53.8827 126.894 54.2277 126.614C54.5793 126.328 55.0155 126.185 55.5363 126.185C55.6796 126.185 55.8488 126.198 56.0441 126.224C56.2395 126.243 56.438 126.282 56.6398 126.341L56.298 129.485L54.8332 129.417C54.4947 129.404 54.2277 129.443 54.0324 129.534C53.8436 129.619 53.6516 129.762 53.4563 129.964V134.632L54.6867 134.944V136.946H48.798ZM61.1852 137.151C60.163 137.151 59.3297 136.862 58.6852 136.282C58.0406 135.703 57.7184 134.931 57.7184 133.968C57.7184 133.31 57.8941 132.728 58.2457 132.22C58.6038 131.712 59.1376 131.315 59.8473 131.028C60.5634 130.735 61.4586 130.589 62.5328 130.589H63.6363V129.964C63.6363 129.541 63.5159 129.183 63.275 128.89C63.0341 128.59 62.6533 128.44 62.1324 128.44C61.9111 128.44 61.7027 128.47 61.5074 128.528C61.3186 128.58 61.1461 128.659 60.9898 128.763L60.7555 130.11H58.3434L58.2945 127.171C58.8935 126.904 59.5185 126.673 60.1695 126.478C60.8271 126.282 61.5595 126.185 62.3668 126.185C63.8056 126.185 64.9482 126.517 65.7945 127.181C66.6409 127.838 67.0641 128.779 67.0641 130.003V133.899C67.0641 134.049 67.0641 134.196 67.0641 134.339C67.0706 134.482 67.0869 134.619 67.1129 134.749L68.2555 134.944V136.946H64.2516C64.1669 136.829 64.0758 136.673 63.9781 136.478C63.8805 136.282 63.8121 136.087 63.773 135.892C63.454 136.289 63.096 136.598 62.6988 136.819C62.3017 137.041 61.7971 137.151 61.1852 137.151ZM62.2398 134.729C62.4872 134.729 62.7346 134.681 62.982 134.583C63.2359 134.479 63.454 134.326 63.6363 134.124V132.601H62.5719C62.1096 132.601 61.7516 132.701 61.4977 132.903C61.2503 133.105 61.1266 133.372 61.1266 133.704C61.1266 134.023 61.2307 134.274 61.4391 134.456C61.6474 134.638 61.9143 134.729 62.2398 134.729ZM76.1602 137.151C74.6888 137.151 73.4421 136.865 72.4199 136.292C71.4043 135.719 70.6296 134.925 70.0957 133.909C69.5618 132.887 69.2949 131.705 69.2949 130.364V129.72C69.2949 128.307 69.5586 127.06 70.0859 125.979C70.6133 124.899 71.3783 124.052 72.3809 123.44C73.3835 122.828 74.5944 122.522 76.0137 122.522C76.9837 122.522 77.957 122.672 78.9336 122.972C79.9102 123.265 80.7695 123.73 81.5117 124.368V127.698H79.0703L78.5527 125.892C78.3314 125.664 78.0156 125.475 77.6055 125.325C77.2018 125.175 76.7461 125.101 76.2383 125.101C75.457 125.101 74.8027 125.296 74.2754 125.687C73.748 126.071 73.3509 126.608 73.084 127.298C72.8236 127.988 72.6934 128.789 72.6934 129.7V130.364C72.6934 131.224 72.8301 131.969 73.1035 132.601C73.3835 133.232 73.7904 133.72 74.3242 134.065C74.8581 134.41 75.5156 134.583 76.2969 134.583C76.707 134.583 77.1139 134.541 77.5176 134.456C77.9212 134.371 78.237 134.277 78.4648 134.173V132.337L76.8633 132.142V129.778H81.9023V135.677C81.1341 136.172 80.265 136.543 79.2949 136.79C78.3314 137.031 77.2865 137.151 76.1602 137.151ZM88.1273 137.151C87.0336 137.151 86.1742 136.806 85.5492 136.116C84.9242 135.426 84.6117 134.358 84.6117 132.913V128.704L83.4789 128.392V126.38H84.6117H88.0395V132.933C88.0395 133.453 88.1469 133.851 88.3617 134.124C88.5831 134.391 88.9119 134.524 89.3481 134.524C89.602 134.524 89.8526 134.479 90.1 134.388C90.3539 134.29 90.5785 134.147 90.7738 133.958V128.704L89.6215 128.392V126.38H90.7738H94.2016V134.632L95.5199 134.944V136.946H91.2231L90.9984 135.745C90.6599 136.201 90.2465 136.549 89.7582 136.79C89.2764 137.031 88.7328 137.151 88.1273 137.151ZM96.8914 136.946V134.944L98.1316 134.632V128.704L96.657 128.392V126.38H101.559V134.632L102.79 134.944V136.946H96.8914ZM98.034 124.378V121.712H101.559V124.378H98.034ZM107.726 137.151C106.704 137.151 105.87 136.862 105.226 136.282C104.581 135.703 104.259 134.931 104.259 133.968C104.259 133.31 104.435 132.728 104.786 132.22C105.144 131.712 105.678 131.315 106.388 131.028C107.104 130.735 107.999 130.589 109.073 130.589H110.177V129.964C110.177 129.541 110.057 129.183 109.816 128.89C109.575 128.59 109.194 128.44 108.673 128.44C108.452 128.44 108.243 128.47 108.048 128.528C107.859 128.58 107.687 128.659 107.53 128.763L107.296 130.11H104.884L104.835 127.171C105.434 126.904 106.059 126.673 106.71 126.478C107.368 126.282 108.1 126.185 108.907 126.185C110.346 126.185 111.489 126.517 112.335 127.181C113.182 127.838 113.605 128.779 113.605 130.003V133.899C113.605 134.049 113.605 134.196 113.605 134.339C113.611 134.482 113.627 134.619 113.654 134.749L114.796 134.944V136.946H110.792C110.708 136.829 110.616 136.673 110.519 136.478C110.421 136.282 110.353 136.087 110.314 135.892C109.995 136.289 109.637 136.598 109.239 136.819C108.842 137.041 108.338 137.151 107.726 137.151ZM108.78 134.729C109.028 134.729 109.275 134.681 109.523 134.583C109.777 134.479 109.995 134.326 110.177 134.124V132.601H109.113C108.65 132.601 108.292 132.701 108.038 132.903C107.791 133.105 107.667 133.372 107.667 133.704C107.667 134.023 107.771 134.274 107.98 134.456C108.188 134.638 108.455 134.729 108.78 134.729Z" fill="black"/>
<path d="M103.009 111.851H136.984M53.1469 51.8178V47.6562L55.3467 44.229M55.3467 44.229H37.9927M55.3467 44.229L54.369 45.7522L71.2341 45.7549L88.5881 45.5999L87.6104 44.229M37.9927 44.229L41.659 48.3906V52.0626M37.9927 44.229L41.659 44.229V35.1713H43.1255M90.0547 52.1197V47.6562L87.6104 44.229M87.6104 44.229L104.72 44.229M104.72 44.229H102.031V35.1713H99.8316M104.72 44.229L102.031 48.8802V52.1197M53.1469 54.8125L54.369 53.0419M53.1469 54.8125L53.1683 113.753M53.1469 54.8125H47.5251H41.6418M87.6104 53.0419L88.5881 54.7555M87.6104 53.0419L88.5881 52.1197H95.6764H102.765L103.742 53.0419M87.6104 53.0419H103.742M87.6104 53.0419H54.369M68.0566 40.0674L64.6347 29.5409L61.7017 40.0674H68.0566ZM68.0566 40.0674C69.1158 42.597 72.2118 46.1384 76.1226 40.0674M76.1226 40.0674H81.4999L78.8112 29.5409M76.1226 40.0674L78.8112 29.5409M78.8112 29.5409C78.4202 26.0158 75.2264 24.1553 73.6784 23.6657C73.6784 23.0591 73.522 22.5673 73.274 22.1968M78.8112 29.5409L84.6774 31.7441L83.9441 33.9473C82.4776 34.4369 79.9845 36.2974 81.7443 39.8226V42.2706C83.7812 43.9026 87.806 45.8937 87.6104 40.8018L86.1439 39.5778L85.4106 37.8642L86.1439 35.1713H87.6104L90.0547 36.1506V35.1713H91.7656M41.6418 54.8125V113.753H53.1683M41.6418 54.8125L40.6813 52.8149L41.1616 52.0626H53.8887L54.369 53.0419M54.369 53.0419H40.6813M53.1683 113.753L56.5688 112.451M88.5881 113.753V54.7555M88.5881 113.753H102.765V54.7555M88.5881 113.753L86.7105 112.451M88.5881 54.7555H102.765M103.742 53.0419L102.765 54.7555M56.5688 112.451L58.7686 111.549L58.2797 73.1155C58.2797 56.7139 85.4106 57.2035 85.4106 73.1155V111.549L86.7105 112.451M56.5688 112.451V70.4228C56.5688 51.8178 86.1439 51.3282 86.1439 70.4228L86.7105 112.451M43.1255 35.1713V33.2129H41.659L44.1032 13.1392L46.0586 33.2129H44.5921V35.1713M43.1255 35.1713H44.5921M44.5921 35.1713H46.5475V41.2914L48.2584 39.8226V35.1713H49.7249M49.7249 35.1713V32.9681H48.2584L50.4582 13.1392L52.658 32.9681H51.1915V35.1713M49.7249 35.1713H51.1915M51.1915 35.1713H53.3913V36.1506L55.8355 35.1713H57.5465V37.8642L57.0576 39.5778L55.3467 40.8018C55.5911 42.7602 57.2043 45.7957 61.7017 42.2706V39.8226C62.3534 38.1906 62.8749 34.7307 59.7463 33.9473L58.2797 31.7441L64.1459 29.5409C64.7977 27.7457 66.6879 24.0574 70.012 23.6657C70.012 23.0493 70.1496 22.5614 70.3714 22.1968M91.7656 35.1713V32.9681H90.0547L92.4989 13.1392L94.6987 32.9681H93.2322V35.1713M91.7656 35.1713H93.2322M93.2322 35.1713H95.1875V39.8226L96.6541 42.2706V35.1713H98.365M98.365 35.1713V32.9681H96.6541L98.365 13.1392L101.298 32.9681H99.8316V35.1713M98.365 35.1713H99.8316M70.3714 22.1968C68.2035 22.3927 68.2508 21.136 68.5455 20.4832C69.8491 18.28 71.9674 14.3142 70.012 16.0768C68.0566 17.8394 68.2196 14.8528 68.5455 13.1392C69.6046 12.4048 71.6252 10.5933 71.2341 9.22237C70.8431 7.85148 71.3971 6.52956 71.723 6.03996C71.8045 5.71356 72.0652 5.25659 72.4562 6.03996C72.2118 7.50877 71.8696 10.2016 72.4562 9.22237C73.0429 8.24316 73.5154 8.16156 73.6784 8.24316C74.4116 10.8544 75.5849 16.0768 74.4116 16.0768C73.2384 16.0768 73.1643 17.7088 73.274 18.5248C77.1197 20.4832 74.8763 21.7888 73.274 22.1968M70.3714 22.1968C71.0583 21.0678 72.5533 21.1206 73.274 22.1968M12.8171 112.341H41.9034M70.5009 32.4785V35.9057L72.4562 37.3745L73.6784 35.9057V33.9473L72.4562 32.4785H70.5009Z" stroke="black"/>
<path d="M103.732 54.4731C100.738 56.7029 100.587 56.3713 96.6841 59.1172M38.8453 90.5875C41.2777 90.8299 42.6309 90.2153 46.776 88.6485M40.3057 74.1058C39.8196 74.3482 39.3336 74.5905 38.8453 74.8329M105.678 78.9533C108.259 76.7442 108.594 76.2872 109.809 74.8329M34.957 108.523C36.4173 109.251 41.5207 109.008 43.9509 108.039M102.031 62.9706C105.395 63.3494 106.407 63.4411 108.351 64.4106M84.5331 67.4204C86.5981 66.0517 88.6305 64.6822 90.6086 63.3303M70.1949 76.5268C72.7818 74.9643 75.395 73.3361 77.9934 71.677M56.0997 84.439C58.4402 83.2495 60.8841 81.9287 63.3903 80.5115M35.6883 76.2872C34.4732 76.7719 32.334 78.9871 32.043 81.6195M100.329 83.1126C97.7572 84.994 94.9375 86.8489 91.9553 88.6485M82.5889 93.8608C78.5243 95.954 74.3362 97.9131 70.1949 99.6801M60.7171 103.42C57.0342 104.752 53.5055 105.879 50.2672 106.755M32.043 85.7399C32.043 87.4366 33.7441 89.1332 34.2301 89.3756M112.24 71.4396C113.455 69.5006 112.969 67.4204 111.874 66.5921" stroke="black" stroke-width="3" stroke-linecap="square" stroke-linejoin="round"/>
<path d="M105.816 43.4932L96.1292 34.005L138.586 21.6292L118.8 56.0754L111.085 48.8561L106.64 51.7438L105.816 43.4932Z" fill="white"/>
<path d="M105.816 43.4932L96.1292 34.005L138.586 21.6292M105.816 43.4932L138.586 21.6292M105.816 43.4932L106.64 51.7438M138.586 21.6292L108.701 46.5872M138.586 21.6292L118.8 56.0754L111.085 48.8561M108.701 46.5872L106.64 51.7438M108.701 46.5872L111.085 48.8561M106.64 51.7438L111.085 48.8561" stroke="black" stroke-width="2"/>
</svg>
