<svg xmlns="http://www.w3.org/2000/svg"  viewBox="0 0 48 48" width="48px" height="48px">
<path d="M0 0 C844.8 0 1689.6 0 2560 0 C2560 422.4 2560 844.8 2560 1280 C1715.2 1280 870.4 1280 0 1280 C0 857.6 0 435.2 0 0 Z " fill="#7D3A40" transform="translate(0,0)"/>
<path d="M0 0 C1.12728516 -0.0299707 1.12728516 -0.0299707 2.27734375 -0.06054688 C8.36577997 -0.05532523 12.77775625 1.63773802 18.125 4.4375 C18.98915527 4.88424072 19.85331055 5.33098145 20.74365234 5.79125977 C23.63596908 7.31333062 26.50723883 8.86967524 29.375 10.4375 C30.4278418 11.01072998 31.48068359 11.58395996 32.56542969 12.17456055 C41.8584273 17.25356804 51.05945168 22.48444121 60.234375 27.77294922 C65.7750937 30.96354213 71.32490622 34.13825471 76.875 37.3125 C77.46804932 37.65187592 78.06109863 37.99125183 78.67211914 38.34091187 C88.06915867 43.71691265 97.5077249 49.01489599 106.96508789 54.28417969 C114.13309489 58.29028332 121.23351806 62.40141898 128.3125 66.5625 C136.81091333 71.55594928 145.39039487 76.36076492 154.06079102 81.04833984 C162.85641149 85.81069659 171.53293684 90.76902805 180.20214844 95.75683594 C185.75526128 98.9499222 191.31469306 102.1319643 196.875 105.3125 C197.46786804 105.65178528 198.06073608 105.99107056 198.67156982 106.34063721 C207.04526418 111.13116669 215.44793968 115.86627664 223.875 120.5625 C236.0556721 127.35510048 248.11467571 134.34857089 260.125 141.4375 C261.03548096 141.96762695 261.94596191 142.49775391 262.8840332 143.04394531 C263.762771 143.56053711 264.64150879 144.07712891 265.546875 144.609375 C266.32514648 145.0640918 267.10341797 145.51880859 267.90527344 145.98730469 C276.29778625 151.4703146 280.99895029 159.05935086 284.125 168.4375 C284.92427043 183.06600769 282.1879241 191.91004784 274.375 204.1875 C267.34558445 211.21691555 258.7319658 216.78244054 248.59960938 216.89648438 C247.84486328 216.88939453 247.09011719 216.88230469 246.3125 216.875 C245.56935547 216.89498047 244.82621094 216.91496094 244.06054688 216.93554688 C234.17935052 216.92703594 226.05363495 212.07947435 217.75 207.1875 C215.90382458 206.1168792 214.05746024 205.04658415 212.2109375 203.9765625 C211.23092773 203.40583008 210.25091797 202.83509766 209.24121094 202.24707031 C204.22587042 199.3346836 199.1909808 196.45650876 194.15524292 193.57958984 C192.96491729 192.89953203 191.77475296 192.21919181 190.58474731 191.53857422 C181.10940487 186.11939922 171.59857296 180.76626326 162.06738281 175.44580078 C154.70765814 171.33425552 147.3816755 167.16715728 140.06982422 162.97119141 C133.34489681 159.11838166 126.58242154 155.33556538 119.8125 151.5625 C111.56981876 146.96588747 103.38671755 142.28155062 95.25 137.5 C85.57779333 131.81835705 75.8073139 126.33299267 65.98974609 120.90698242 C58.229615 116.61584328 50.51086597 112.25975884 42.81982422 107.84619141 C36.58208273 104.26692446 30.32653969 100.72052187 24.0625 97.1875 C20.08237474 94.93919283 16.10342693 92.6888109 12.125 90.4375 C11.54248474 90.10800354 10.95996948 89.77850708 10.35980225 89.43902588 C6.60395378 87.31404745 2.85051299 85.18489627 -0.90036011 83.05114746 C-2.11463254 82.36107834 -3.32955803 81.67215685 -4.54519653 80.98449707 C-30.8049821 66.12528348 -30.8049821 66.12528348 -35.875 53.4375 C-36.2875 52.40625 -36.7 51.375 -37.125 50.3125 C-39.64876805 37.27303174 -37.61049148 26.63883853 -30.25 15.6875 C-22.6693816 5.80587453 -12.5065881 -0.11678478 0 0 Z " fill="#FEFEFE" transform="translate(326.875,420.5625)"/>
<path d="M0 0 C6.21732963 5.07303583 10.63157849 10.75605452 13.6875 18.1875 C14.2012298 19.37119266 14.2012298 19.37119266 14.72533798 20.57879829 C16.10135761 25.73972159 15.96263708 30.69734108 15.94146729 36.01657104 C15.94458727 37.21661746 15.94770725 38.41666388 15.95092177 39.65307534 C15.95751277 42.9762171 15.95514875 46.29913239 15.94894934 49.62226033 C15.94442198 53.20926135 15.95141009 56.79624265 15.95690918 60.38323975 C15.96580233 67.40763765 15.96388136 74.43199281 15.9580839 81.45639239 C15.95356639 87.16652026 15.95295489 92.87663615 15.95513153 98.58676529 C15.955438 99.39959877 15.95574446 100.21243225 15.95606022 101.04989705 C15.95669967 102.7012 15.9573481 104.35250295 15.9580054 106.00380589 C15.96370865 121.48879983 15.95715125 136.9737701 15.94640467 152.45876016 C15.93747253 165.74025952 15.93901842 179.02172392 15.94824219 192.30322266 C15.95895071 207.7298627 15.96315578 223.15648199 15.95701766 238.58312523 C15.95638057 240.22895121 15.95575183 241.87477719 15.95513153 243.52060318 C15.9546687 244.73523237 15.9546687 244.73523237 15.95419653 245.97439953 C15.95247109 251.67542136 15.95538152 257.37643001 15.96009064 263.0774498 C15.96570608 270.0284789 15.9641692 276.97946284 15.95352915 283.93048678 C15.94828086 287.47576133 15.94620126 291.02096064 15.95282745 294.56623459 C15.95990705 298.41235262 15.9514408 302.25834806 15.94146729 306.10446167 C15.94592873 307.22100502 15.95039017 308.33754837 15.95498681 309.48792636 C15.89390031 321.62613911 12.97906667 331.98162873 4.5 341 C-4.98617579 349.96269118 -14.5490034 351.59379598 -27.10546875 351.3984375 C-36.52617594 351.06220605 -44.25322442 346.97694755 -51.0703125 340.5234375 C-54.69853057 336.5305744 -57.26439809 332.16811147 -59.3125 327.1875 C-59.65470896 326.40122601 -59.99691792 325.61495201 -60.34949684 324.80485153 C-61.73516356 319.59983888 -61.59456137 314.58443981 -61.57992554 309.22003174 C-61.58445665 308.00506224 -61.58898776 306.79009275 -61.59365618 305.538306 C-61.60411738 302.17342829 -61.60562758 298.80876454 -61.60326743 295.4438858 C-61.60285887 291.81184869 -61.61390224 288.17984332 -61.62338257 284.54782104 C-61.63998534 277.43452784 -61.6454918 270.32126778 -61.64660732 263.20795682 C-61.64755821 257.42442766 -61.65167051 251.64090943 -61.65800858 245.85738373 C-61.67561954 229.45290024 -61.68484775 213.04844291 -61.68334763 196.6439499 C-61.68326772 195.75984487 -61.6831878 194.87573984 -61.68310547 193.96484375 C-61.68302371 193.07965666 -61.68294195 192.19446957 -61.68285771 191.28245863 C-61.682045 176.94032838 -61.70117921 162.59830319 -61.7293822 148.25620332 C-61.75812546 133.52285592 -61.77192168 118.78955973 -61.77019465 104.05618358 C-61.76953121 95.78734192 -61.77500307 87.51861038 -61.79655075 79.24979401 C-61.81478161 72.2087594 -61.81909436 65.16788483 -61.8055319 58.12683681 C-61.7990116 54.53667179 -61.79885064 50.94681364 -61.8162384 47.35667801 C-61.83492277 43.45861172 -61.8223899 39.56099107 -61.80697632 35.66290283 C-61.81726344 34.53662137 -61.82755057 33.41033991 -61.83814943 32.24992871 C-61.73927147 20.91616884 -57.90937434 12.05810195 -50.25 3.6875 C-36.58462942 -9.62292589 -15.47495132 -10.87035187 0 0 Z " fill="#FEFEFE" transform="translate(664.3125,689.8125)"/>
<path d="M0 0 C10.15109898 5.98062999 17.28623678 14.13001461 21.234375 25.31640625 C24.20945649 37.5992427 22.46288518 48.50958013 16.05859375 59.296875 C6.76272265 71.87364178 -13.55603874 79.69731975 -26.765625 87.31640625 C-28.36954102 88.24211426 -28.36954102 88.24211426 -30.00585938 89.18652344 C-34.35600463 91.696827 -38.70669164 94.20618678 -43.05834961 96.71386719 C-56.67493312 104.56308146 -70.24733199 112.48763611 -83.80078125 120.4453125 C-86.24733288 121.88161769 -88.69394018 123.31782796 -91.140625 124.75390625 C-92.05545654 125.29088638 -92.05545654 125.29088638 -92.98876953 125.8387146 C-102.73478746 131.55754421 -112.51055194 137.22302821 -122.30371094 142.86083984 C-133.48481652 149.29963803 -144.62633384 155.80561924 -155.765625 162.31640625 C-159.72347974 164.62972663 -163.68173163 166.94236374 -167.640625 169.25390625 C-168.62780518 169.83035889 -169.61498535 170.40681152 -170.63208008 171.00073242 C-179.00868791 175.88657784 -187.41287498 180.72383713 -195.82128906 185.5546875 C-201.52342592 188.8393364 -207.20220379 192.15819544 -212.84765625 195.5390625 C-252.38310751 219.21147372 -252.38310751 219.21147372 -267.5390625 215.66796875 C-278.03640792 212.22766227 -285.92819337 205.67145903 -291.765625 196.31640625 C-296.79993257 185.77343386 -299.15448896 174.2322728 -295.70703125 162.80859375 C-290.72673692 152.25414885 -282.89002333 145.8677798 -272.890625 140.25390625 C-271.46592896 139.43273315 -271.46592896 139.43273315 -270.01245117 138.5949707 C-267.98100046 137.42568726 -265.94632118 136.26199767 -263.90869141 135.10351562 C-259.69826221 132.70951673 -255.50366637 130.28845375 -251.30859375 127.86767578 C-249.1363483 126.61443199 -246.96315422 125.36283116 -244.7890625 124.11279297 C-236.94997251 119.60024983 -229.16178721 115.00727337 -221.390625 110.37890625 C-211.65581931 104.58305555 -201.85776013 98.9143508 -192.00793457 93.31768799 C-183.33161818 88.3851542 -174.71667921 83.35962997 -166.140625 78.25390625 C-152.02020133 69.84755213 -137.78668717 61.64510206 -123.53613281 53.46191406 C-111.43987055 46.51268633 -99.3778325 39.51489401 -87.390625 32.37890625 C-74.61776018 24.77840095 -61.73876048 17.37784801 -48.81005859 10.04638672 C-46.08866051 8.49996917 -43.37313445 6.94393611 -40.66015625 5.3828125 C-39.23707386 4.56884484 -37.81390597 3.75502663 -36.390625 2.94140625 C-35.78516846 2.59021729 -35.17971191 2.23902832 -34.5559082 1.87719727 C-24.26658892 -3.96735029 -10.88827679 -5.24318027 0 0 Z " fill="#FEFEFE" transform="translate(969.765625,422.68359375)"/>
<path d="M0 0 C9.91631403 7.11311572 17.00683417 17.31888305 19.375 29.375 C20.24909044 40.66378507 17.50281878 50.32567696 10.5625 59.3125 C5.2018697 65.09839951 -1.81220895 68.58182251 -8.625 72.375 C-10.55753897 73.46179995 -12.48981361 74.54907001 -14.421875 75.63671875 C-18.71037764 78.04583138 -23.00409618 80.44535865 -27.30078125 82.83984375 C-32.86505281 85.94433337 -38.4082744 89.08357592 -43.9375 92.25 C-45.19022705 92.96724243 -45.19022705 92.96724243 -46.46826172 93.69897461 C-49.18758891 95.2569278 -51.90631607 96.81592459 -54.625 98.375 C-59.20731646 101.00177914 -63.79047231 103.62708255 -68.375 106.25 C-68.96481659 106.58747253 -69.55463318 106.92494507 -70.162323 107.27264404 C-79.79030747 112.77890719 -89.44996217 118.22663912 -99.13964844 123.6237793 C-104.08113456 126.37800424 -108.99816731 129.16186304 -113.87133789 132.03515625 C-125.17493248 138.65711449 -135.18450709 141.53212663 -148.4609375 138.7890625 C-158.2296326 135.43011056 -167.19939604 126.71592903 -171.75 117.5 C-172.06195313 116.88382813 -172.37390625 116.26765625 -172.6953125 115.6328125 C-176.26949513 106.95265469 -177.22662061 96.79968268 -174.9375 87.6171875 C-173.99871117 85.37191755 -172.94376904 83.41868245 -171.625 81.375 C-171.18929688 80.68019531 -170.75359375 79.98539063 -170.3046875 79.26953125 C-164.47569673 70.78086437 -155.79039085 66.13352403 -146.9375 61.25 C-144.88122794 60.10206835 -142.82524433 58.95361987 -140.76953125 57.8046875 C-139.73908691 57.23073242 -138.70864258 56.65677734 -137.64697266 56.06542969 C-133.12129527 53.53385834 -128.62283457 50.9556122 -124.125 48.375 C-116.95126238 44.2670544 -109.76247177 40.18677718 -102.5625 36.125 C-94.49819658 31.57505832 -86.45043995 26.99687827 -78.41372681 22.3984375 C-68.90872841 16.9600599 -59.40053261 11.52735552 -49.875 6.125 C-48.49248047 5.33802734 -48.49248047 5.33802734 -47.08203125 4.53515625 C-31.30755594 -4.39511877 -16.77472511 -10.35832082 0 0 Z " fill="#FEFEFE" transform="translate(463.625,718.625)"/>
<path d="M0 0 C10.88248089 6.14915693 17.62724639 14.98721737 21 27 C21.54730477 31.89561669 21.52831808 36.76692104 21.48583984 41.68603516 C21.48798994 43.14249512 21.49187391 44.59895339 21.49734497 46.05540466 C21.5069755 49.98308216 21.49181554 53.91029971 21.47143888 57.83792162 C21.45376964 61.962122 21.45739484 66.08631025 21.4581604 70.21054077 C21.45629209 77.13197448 21.43899019 84.05323196 21.41162109 90.97460938 C21.38015049 98.96244343 21.36962607 106.9500849 21.3710922 114.93797648 C21.37244578 123.46617868 21.35855193 131.99430725 21.34019899 140.52248716 C21.33594855 142.97020087 21.33451832 145.4179026 21.33372116 147.86561966 C21.3317037 151.71856982 21.31942459 155.57136002 21.29938889 159.42425728 C21.29357644 160.83349566 21.29108049 162.24275245 21.29224396 163.65200233 C21.29921662 177.2456377 19.15000945 188.02604725 9.7890625 198.37109375 C1.11718665 206.26666631 -9.16695694 209.65752913 -20.7265625 209.34765625 C-31.38712148 208.21544891 -41.08013498 202.92967956 -47.8125 194.625 C-53.67411511 186.53297914 -56.10178286 179.7818819 -56.15390015 169.7026062 C-56.16250061 168.45799118 -56.17110107 167.21337616 -56.17996216 165.93104553 C-56.1843965 164.5645451 -56.18869494 163.19804422 -56.19287109 161.83154297 C-56.20078106 160.38216459 -56.20905055 158.93278814 -56.21765137 157.4834137 C-56.24376845 152.73635715 -56.25916885 147.98929225 -56.2734375 143.2421875 C-56.27880145 141.60241822 -56.28417897 139.96264898 -56.28956985 138.32287979 C-56.31118359 131.49772593 -56.32991718 124.67257433 -56.34119225 117.84739494 C-56.35741407 108.09501784 -56.39056602 98.34304012 -56.44759309 88.59081352 C-56.48640321 81.71752586 -56.50583799 74.84434454 -56.51111281 67.97095025 C-56.51475119 63.87363854 -56.52660986 59.77675383 -56.55921555 55.67956161 C-56.58949218 51.81996097 -56.5955393 47.96104134 -56.58383179 44.10134697 C-56.58361268 42.69375621 -56.59178152 41.286132 -56.60948563 39.87865257 C-56.74835455 28.19174641 -54.28453049 18.03769137 -46.7890625 8.8125 C-40.82838865 2.77373872 -34.13161568 -0.83822078 -26 -3 C-17.25571194 -5.91476269 -8.23450826 -3.51352215 0 0 Z " fill="#FEFEFE" transform="translate(659,242)"/>
<path d="M0 0 C3.30133995 2.03406124 6.61439527 4.04819719 9.93164062 6.05615234 C14.0783041 8.56726837 18.22279382 11.08185595 22.36351013 13.60276794 C29.44693162 17.91464936 36.55074226 22.19151708 43.66601562 26.45068359 C55.01963831 33.24977155 66.33944544 40.10324767 77.64257812 46.98583984 C81.64944144 49.42528165 85.66320488 51.85197507 89.68945312 54.25927734 C90.51002197 54.75266602 91.33059082 55.24605469 92.17602539 55.75439453 C93.63953693 56.63396016 95.10587196 57.50885764 96.57592773 58.37744141 C102.7372635 62.0953428 108.50325841 66.28532392 112.47851562 72.38818359 C112.94902344 73.08814453 113.41953125 73.78810547 113.90429688 74.50927734 C118.4825609 83.36814737 118.71706225 94.82266454 116.29101562 104.40771484 C112.39932867 114.38016267 106.25858858 122.28504628 97.16601562 127.95068359 C96.23789062 128.57136719 96.23789062 128.57136719 95.29101562 129.20458984 C87.81921252 133.39288573 78.43023158 133.32508956 70.16601562 131.95068359 C64.3478721 130.30249649 59.29630231 127.0641631 54.16601562 123.95068359 C52.30874555 122.85817178 50.45061355 121.76712443 48.59179688 120.67724609 C42.07913387 116.82937919 35.62173207 112.89309873 29.16601562 108.95068359 C25.22215312 106.54914584 21.27707554 104.14961203 17.33129883 101.7512207 C16.17810575 101.05004933 15.02511132 100.34855112 13.87231445 99.64672852 C4.0964464 93.69578349 -5.73466603 87.84159551 -15.58398438 82.01318359 C-26.08919891 75.79450605 -36.53899349 69.51298773 -46.83398438 62.95068359 C-48.10267968 62.16677698 -49.37223368 61.38425865 -50.64257812 60.60302734 C-61.49516156 53.88064462 -69.24351882 47.63060343 -73.44726562 35.12646484 C-75.16022701 25.4888942 -74.6738284 15.54817049 -69.83398438 6.95068359 C-69.39828125 6.17208984 -68.96257813 5.39349609 -68.51367188 4.59130859 C-62.7596762 -4.778586 -54.40672281 -11.44598965 -43.81445312 -14.66259766 C-27.14614768 -17.91735552 -13.47809446 -8.31438078 0 0 Z " fill="#FEFEFE" transform="translate(872.833984375,728.04931640625)"/>
</svg>
