<?xml version="1.0" encoding="UTF-8"?>
<!DOCTYPE svg PUBLIC "-//W3C//DTD SVG 1.1//EN" "http://www.w3.org/Graphics/SVG/1.1/DTD/svg11.dtd">
<svg xmlns="http://www.w3.org/2000/svg" version="1.1" width="2560px" height="1280px" style="shape-rendering:geometricPrecision; text-rendering:geometricPrecision; image-rendering:optimizeQuality; fill-rule:evenodd; clip-rule:evenodd" xmlns:xlink="http://www.w3.org/1999/xlink">
<g><path style="opacity:1" fill="#7d3a40" d="M -0.5,-0.5 C 852.833,-0.5 1706.17,-0.5 2559.5,-0.5C 2559.5,426.167 2559.5,852.833 2559.5,1279.5C 1706.17,1279.5 852.833,1279.5 -0.5,1279.5C -0.5,852.833 -0.5,426.167 -0.5,-0.5 Z"/></g>
<g><path style="opacity:1" fill="#fefefe" d="M 635.5,237.5 C 657.908,236.938 672.408,247.272 679,268.5C 679.667,318.167 679.667,367.833 679,417.5C 674.398,438.316 661.398,449.316 640,450.5C 619.489,448.655 607.156,437.655 603,417.5C 602.333,367.833 602.333,318.167 603,268.5C 607.982,251.943 618.816,241.61 635.5,237.5 Z"/></g>
<g><path style="opacity:1" fill="#fefefe" d="M 945.5,419.5 C 968.912,417.786 984.079,428.119 991,450.5C 993.546,464.19 990.046,476.023 980.5,486C 895.992,536.424 810.992,586.09 725.5,635C 702.106,642.389 685.272,634.889 675,612.5C 668.477,595.183 672.31,580.683 686.5,569C 767.664,521.919 848.664,474.586 929.5,427C 934.814,424.173 940.147,421.673 945.5,419.5 Z"/></g>
<g><path style="opacity:1" fill="#fefefe" d="M 317.5,420.5 C 326.491,419.644 335.158,420.81 343.5,424C 427.5,471.667 511.5,519.333 595.5,567C 612.661,582.61 615.161,600.444 603,620.5C 591.13,635.84 575.964,640.34 557.5,634C 472.833,586 388.167,538 303.5,490C 288.074,476.458 284.574,460.291 293,441.5C 298.875,431.789 307.042,424.789 317.5,420.5 Z"/></g>
<g><path style="opacity:1" fill="#fefefe" d="M 632.5,682.5 C 656.471,680.327 671.971,690.661 679,713.5C 679.667,811.5 679.667,909.5 679,1007.5C 671.961,1034.54 654.794,1045.04 627.5,1039C 614.744,1033.91 606.577,1024.74 603,1011.5C 602.333,911.5 602.333,811.5 603,711.5C 608.119,696.88 617.952,687.213 632.5,682.5 Z"/></g>
<g><path style="opacity:1" fill="#fefefe" d="M 438.5,712.5 C 462.016,712.841 476.516,724.508 482,747.5C 483.357,760.766 479.19,771.933 469.5,781C 428.833,804.333 388.167,827.667 347.5,851C 323.377,863.514 304.543,858.014 291,834.5C 283.966,817.623 286.799,802.789 299.5,790C 338.833,767.333 378.167,744.667 417.5,722C 424.095,717.698 431.095,714.531 438.5,712.5 Z"/></g>
<g><path style="opacity:1" fill="#fefefe" d="M 830.5,712.5 C 840.067,712.308 849.067,714.475 857.5,719C 897.5,743.333 937.5,767.667 977.5,792C 989.834,803.976 993,818.142 987,834.5C 977.466,855.017 961.632,862.85 939.5,858C 897.239,833.398 855.239,808.398 813.5,783C 796.816,767.842 793.982,750.342 805,730.5C 811.488,721.492 819.988,715.492 830.5,712.5 Z"/></g>
</svg>
